<svg width="23" height="19" viewBox="0 0 23 19" fill="none" xmlns="http://www.w3.org/2000/svg">
<path d="M22.5575 2.16975C21.7187 2.53772 20.8248 2.78163 19.8929 2.90005C20.8516 2.32766 21.5833 1.42817 21.9273 0.344002C21.0335 0.876924 20.0466 1.25335 18.9949 1.46342C18.1461 0.559709 16.9365 0 15.6169 0C13.0566 0 10.9954 2.07811 10.9954 4.62571C10.9954 4.99227 11.0264 5.34473 11.1025 5.68027C7.25789 5.49276 3.85593 3.65009 1.57057 0.843088C1.17158 1.53532 0.937548 2.32766 0.937548 3.18061C0.937548 4.7822 1.76231 6.20191 2.99169 7.02385C2.2487 7.00976 1.51981 6.79405 0.902302 6.45428C0.902302 6.46838 0.902302 6.4867 0.902302 6.50503C0.902302 8.75233 2.5053 10.619 4.60738 11.049C4.23095 11.1519 3.82068 11.2012 3.39491 11.2012C3.09884 11.2012 2.79995 11.1843 2.5194 11.1223C3.11858 12.9537 4.81885 14.3001 6.84057 14.3438C5.26719 15.5746 3.26943 16.3162 1.10673 16.3162C0.727481 16.3162 0.36374 16.2992 0 16.2527C2.04851 17.5737 4.47626 18.328 7.09435 18.328C15.6042 18.328 20.2567 11.2788 20.2567 5.1685C20.2567 4.96407 20.2496 4.76669 20.2398 4.57072C21.1576 3.91937 21.9287 3.10589 22.5575 2.16975Z" fill="white"/>
</svg>