<svg width="27" height="20" viewBox="0 0 27 20" fill="none" xmlns="http://www.w3.org/2000/svg">
<path d="M26.4011 3.23459C26.2468 2.66126 25.9455 2.13817 25.5269 1.7171C25.1083 1.29602 24.587 0.991556 24.0146 0.833841C21.8838 0.265616 13.4811 0.265625 13.4811 0.265625C13.4811 0.265625 5.05011 0.265616 2.94768 0.833841C2.37562 0.990689 1.85475 1.29499 1.43719 1.71629C1.01962 2.1376 0.71998 2.66115 0.568237 3.23459C1.29972e-05 5.36543 0 9.76918 0 9.76918C0 9.76918 1.29972e-05 14.18 0.568237 16.2967C0.718661 16.8707 1.01786 17.395 1.43563 17.8165C1.85339 18.238 2.37496 18.5419 2.94768 18.6974C5.07852 19.2656 13.4811 19.2656 13.4811 19.2656C13.4811 19.2656 21.9122 19.2656 24.0146 18.6974C24.5877 18.541 25.1096 18.2369 25.5284 17.8157C25.9472 17.3944 26.2481 16.8706 26.4011 16.2967C26.9623 14.1658 26.9623 9.76918 26.9623 9.76918C26.9623 9.76918 26.9623 5.36543 26.4011 3.23459Z" fill="white"/>
<path d="M10.7246 13.8035V5.78442L17.7706 9.7904L10.7246 13.8035Z" fill="#141211"/>
</svg>