<svg width="19" height="18" viewBox="0 0 19 18" fill="none" xmlns="http://www.w3.org/2000/svg">
<path d="M9.50366 4.37813C6.95141 4.37813 4.88516 6.44663 4.88516 8.99662C4.88516 11.5489 6.95366 13.6151 9.50366 13.6151C12.0559 13.6151 14.1222 11.5466 14.1222 8.99662C14.1222 6.44438 12.0537 4.37813 9.50366 4.37813ZM9.50366 11.9944C7.84691 11.9944 6.50591 10.6526 6.50591 8.99662C6.50591 7.34063 7.84766 5.99888 9.50366 5.99888C11.1597 5.99888 12.5014 7.34063 12.5014 8.99662C12.5022 10.6526 11.1604 11.9944 9.50366 11.9944Z" fill="white"/>
<path d="M13.2112 0.05654C11.5552 -0.02071 7.45342 -0.01696 5.79592 0.05654C4.33942 0.12479 3.05467 0.47654 2.01892 1.51229C0.28792 3.24329 0.50917 5.57579 0.50917 8.99654C0.50917 12.4975 0.314171 14.776 2.01892 16.4808C3.75667 18.2178 6.12292 17.9905 9.50317 17.9905C12.9712 17.9905 14.1682 17.9928 15.3944 17.518C17.0617 16.8708 18.3202 15.3805 18.4432 12.7038C18.5212 11.047 18.5167 6.94604 18.4432 5.28854C18.2947 2.12879 16.5989 0.21254 13.2112 0.05654ZM15.8324 15.3355C14.6977 16.4703 13.1234 16.369 9.48142 16.369C5.73142 16.369 4.22767 16.4245 3.13042 15.3243C1.86667 14.0665 2.09542 12.0468 2.09542 8.98454C2.09542 4.84079 1.67017 1.85654 5.82892 1.64354C6.78442 1.60979 7.06567 1.59854 9.47092 1.59854L9.50467 1.62104C13.5014 1.62104 16.6372 1.20254 16.8254 5.36054C16.8682 6.30929 16.8779 6.59429 16.8779 8.99579C16.8772 12.7023 16.9477 14.215 15.8324 15.3355Z" fill="white"/>
<path d="M14.3058 5.27569C14.9019 5.27569 15.3851 4.79249 15.3851 4.19644C15.3851 3.60038 14.9019 3.11719 14.3058 3.11719C13.7098 3.11719 13.2266 3.60038 13.2266 4.19644C13.2266 4.79249 13.7098 5.27569 14.3058 5.27569Z" fill="white"/>
</svg>